<mxfile host="app.diagrams.net" agent="Mozilla/5.0 (Macintosh; Intel Mac OS X 10_15_7) AppleWebKit/605.1.15 (KHTML, like Gecko) Version/18.3 Safari/605.1.15" version="26.0.16">
  <diagram name="Page-1" id="uDxscgjVMDc-QhdXBPix">
    <mxGraphModel dx="1196" dy="794" grid="1" gridSize="10" guides="1" tooltips="1" connect="1" arrows="1" fold="1" page="1" pageScale="1" pageWidth="850" pageHeight="1100" math="0" shadow="0">
      <root>
        <mxCell id="0" />
        <mxCell id="1" parent="0" />
        <mxCell id="eTdUxkfidYCad7VHPtUT-1" value="Management account" style="points=[[0,0],[0.25,0],[0.5,0],[0.75,0],[1,0],[1,0.25],[1,0.5],[1,0.75],[1,1],[0.75,1],[0.5,1],[0.25,1],[0,1],[0,0.75],[0,0.5],[0,0.25]];outlineConnect=0;gradientColor=none;html=1;whiteSpace=wrap;fontSize=12;fontStyle=0;container=1;pointerEvents=0;collapsible=0;recursiveResize=0;shape=mxgraph.aws4.group;grIcon=mxgraph.aws4.group_account;strokeColor=#CD2264;fillColor=none;verticalAlign=top;align=left;spacingLeft=30;fontColor=#CD2264;dashed=0;" vertex="1" parent="1">
          <mxGeometry x="190" y="220" width="1200" height="340" as="geometry" />
        </mxCell>
        <mxCell id="eTdUxkfidYCad7VHPtUT-33" style="edgeStyle=orthogonalEdgeStyle;rounded=0;orthogonalLoop=1;jettySize=auto;html=1;exitX=0.5;exitY=1;exitDx=0;exitDy=0;exitPerimeter=0;" edge="1" parent="eTdUxkfidYCad7VHPtUT-1" source="eTdUxkfidYCad7VHPtUT-2" target="eTdUxkfidYCad7VHPtUT-29">
          <mxGeometry relative="1" as="geometry" />
        </mxCell>
        <mxCell id="eTdUxkfidYCad7VHPtUT-35" style="edgeStyle=orthogonalEdgeStyle;rounded=0;orthogonalLoop=1;jettySize=auto;html=1;" edge="1" parent="eTdUxkfidYCad7VHPtUT-1" source="eTdUxkfidYCad7VHPtUT-2" target="eTdUxkfidYCad7VHPtUT-6">
          <mxGeometry relative="1" as="geometry" />
        </mxCell>
        <mxCell id="eTdUxkfidYCad7VHPtUT-47" value="2. Publish&lt;div&gt;event&lt;/div&gt;" style="edgeLabel;html=1;align=center;verticalAlign=middle;resizable=0;points=[];" vertex="1" connectable="0" parent="eTdUxkfidYCad7VHPtUT-35">
          <mxGeometry x="-0.1714" relative="1" as="geometry">
            <mxPoint x="11" as="offset" />
          </mxGeometry>
        </mxCell>
        <mxCell id="eTdUxkfidYCad7VHPtUT-2" value="" style="sketch=0;points=[[0,0,0],[0.25,0,0],[0.5,0,0],[0.75,0,0],[1,0,0],[0,1,0],[0.25,1,0],[0.5,1,0],[0.75,1,0],[1,1,0],[0,0.25,0],[0,0.5,0],[0,0.75,0],[1,0.25,0],[1,0.5,0],[1,0.75,0]];points=[[0,0,0],[0.25,0,0],[0.5,0,0],[0.75,0,0],[1,0,0],[0,1,0],[0.25,1,0],[0.5,1,0],[0.75,1,0],[1,1,0],[0,0.25,0],[0,0.5,0],[0,0.75,0],[1,0.25,0],[1,0.5,0],[1,0.75,0]];outlineConnect=0;fontColor=#232F3E;fillColor=#E7157B;strokeColor=#ffffff;dashed=0;verticalLabelPosition=bottom;verticalAlign=top;align=center;html=1;fontSize=12;fontStyle=0;aspect=fixed;shape=mxgraph.aws4.resourceIcon;resIcon=mxgraph.aws4.cloudformation;" vertex="1" parent="eTdUxkfidYCad7VHPtUT-1">
          <mxGeometry x="254.5" y="60" width="78" height="78" as="geometry" />
        </mxCell>
        <mxCell id="eTdUxkfidYCad7VHPtUT-5" value="StackSet Operation&lt;div&gt;Status Change&lt;div&gt;event&lt;/div&gt;&lt;/div&gt;" style="sketch=0;outlineConnect=0;fontColor=#232F3E;gradientColor=none;fillColor=#E7157B;strokeColor=none;dashed=0;verticalLabelPosition=bottom;verticalAlign=top;align=center;html=1;fontSize=12;fontStyle=0;aspect=fixed;pointerEvents=1;shape=mxgraph.aws4.event;" vertex="1" parent="eTdUxkfidYCad7VHPtUT-1">
          <mxGeometry x="380" y="120" width="50" height="50" as="geometry" />
        </mxCell>
        <mxCell id="eTdUxkfidYCad7VHPtUT-38" value="" style="edgeStyle=orthogonalEdgeStyle;rounded=0;orthogonalLoop=1;jettySize=auto;html=1;" edge="1" parent="eTdUxkfidYCad7VHPtUT-1" source="eTdUxkfidYCad7VHPtUT-6" target="eTdUxkfidYCad7VHPtUT-8">
          <mxGeometry relative="1" as="geometry" />
        </mxCell>
        <mxCell id="eTdUxkfidYCad7VHPtUT-6" value="default&lt;div&gt;EventBridge bus&lt;/div&gt;" style="sketch=0;outlineConnect=0;fontColor=#232F3E;gradientColor=none;fillColor=#E7157B;strokeColor=none;dashed=0;verticalLabelPosition=bottom;verticalAlign=top;align=center;html=1;fontSize=12;fontStyle=0;aspect=fixed;pointerEvents=1;shape=mxgraph.aws4.eventbridge_default_event_bus_resource;" vertex="1" parent="eTdUxkfidYCad7VHPtUT-1">
          <mxGeometry x="480" y="72.5" width="78" height="53" as="geometry" />
        </mxCell>
        <mxCell id="eTdUxkfidYCad7VHPtUT-14" style="edgeStyle=orthogonalEdgeStyle;rounded=0;orthogonalLoop=1;jettySize=auto;html=1;" edge="1" parent="eTdUxkfidYCad7VHPtUT-1" source="eTdUxkfidYCad7VHPtUT-7" target="eTdUxkfidYCad7VHPtUT-2">
          <mxGeometry relative="1" as="geometry" />
        </mxCell>
        <mxCell id="eTdUxkfidYCad7VHPtUT-15" value="1. Call&lt;div&gt;detectStackSetDrift&lt;/div&gt;" style="edgeLabel;html=1;align=center;verticalAlign=middle;resizable=0;points=[];" vertex="1" connectable="0" parent="eTdUxkfidYCad7VHPtUT-14">
          <mxGeometry x="0.197" y="-2" relative="1" as="geometry">
            <mxPoint x="-13" y="-2" as="offset" />
          </mxGeometry>
        </mxCell>
        <mxCell id="eTdUxkfidYCad7VHPtUT-7" value="EventBridge&lt;div&gt;schedule&lt;/div&gt;" style="sketch=0;outlineConnect=0;fontColor=#232F3E;gradientColor=none;fillColor=#E7157B;strokeColor=none;dashed=0;verticalLabelPosition=bottom;verticalAlign=top;align=center;html=1;fontSize=12;fontStyle=0;aspect=fixed;pointerEvents=1;shape=mxgraph.aws4.eventbridge_scheduler;" vertex="1" parent="eTdUxkfidYCad7VHPtUT-1">
          <mxGeometry x="34.5" y="60" width="78" height="78" as="geometry" />
        </mxCell>
        <mxCell id="eTdUxkfidYCad7VHPtUT-39" style="edgeStyle=orthogonalEdgeStyle;rounded=0;orthogonalLoop=1;jettySize=auto;html=1;" edge="1" parent="eTdUxkfidYCad7VHPtUT-1" source="eTdUxkfidYCad7VHPtUT-8" target="eTdUxkfidYCad7VHPtUT-13">
          <mxGeometry relative="1" as="geometry" />
        </mxCell>
        <mxCell id="eTdUxkfidYCad7VHPtUT-44" value="4. Trigger&lt;div&gt;function&lt;/div&gt;" style="edgeLabel;html=1;align=center;verticalAlign=middle;resizable=0;points=[];" vertex="1" connectable="0" parent="eTdUxkfidYCad7VHPtUT-39">
          <mxGeometry x="-0.1532" y="3" relative="1" as="geometry">
            <mxPoint y="3" as="offset" />
          </mxGeometry>
        </mxCell>
        <mxCell id="eTdUxkfidYCad7VHPtUT-8" value="Custom rule" style="sketch=0;outlineConnect=0;fontColor=#232F3E;gradientColor=none;fillColor=#E7157B;strokeColor=none;dashed=0;verticalLabelPosition=bottom;verticalAlign=top;align=center;html=1;fontSize=12;fontStyle=0;aspect=fixed;pointerEvents=1;shape=mxgraph.aws4.rule_3;" vertex="1" parent="eTdUxkfidYCad7VHPtUT-1">
          <mxGeometry x="640" y="65.5" width="78" height="68" as="geometry" />
        </mxCell>
        <mxCell id="eTdUxkfidYCad7VHPtUT-41" style="edgeStyle=orthogonalEdgeStyle;rounded=0;orthogonalLoop=1;jettySize=auto;html=1;" edge="1" parent="eTdUxkfidYCad7VHPtUT-1" source="eTdUxkfidYCad7VHPtUT-9" target="eTdUxkfidYCad7VHPtUT-10">
          <mxGeometry relative="1" as="geometry">
            <Array as="points">
              <mxPoint x="1029" y="180" />
              <mxPoint x="1107" y="180" />
            </Array>
          </mxGeometry>
        </mxCell>
        <mxCell id="eTdUxkfidYCad7VHPtUT-42" style="edgeStyle=orthogonalEdgeStyle;rounded=0;orthogonalLoop=1;jettySize=auto;html=1;" edge="1" parent="eTdUxkfidYCad7VHPtUT-1" source="eTdUxkfidYCad7VHPtUT-9" target="eTdUxkfidYCad7VHPtUT-11">
          <mxGeometry relative="1" as="geometry">
            <Array as="points">
              <mxPoint x="1029" y="180" />
              <mxPoint x="951" y="180" />
            </Array>
          </mxGeometry>
        </mxCell>
        <mxCell id="eTdUxkfidYCad7VHPtUT-9" value="&lt;span style=&quot;background-color: light-dark(#ffffff, var(--ge-dark-color, #121212));&quot;&gt;Alarms topic&lt;/span&gt;" style="sketch=0;outlineConnect=0;fontColor=#232F3E;gradientColor=none;fillColor=#E7157B;strokeColor=none;dashed=0;verticalLabelPosition=bottom;verticalAlign=top;align=center;html=1;fontSize=12;fontStyle=0;aspect=fixed;pointerEvents=1;shape=mxgraph.aws4.topic;" vertex="1" parent="eTdUxkfidYCad7VHPtUT-1">
          <mxGeometry x="990" y="65.5" width="78" height="67" as="geometry" />
        </mxCell>
        <mxCell id="eTdUxkfidYCad7VHPtUT-10" value="" style="sketch=0;outlineConnect=0;fontColor=#232F3E;gradientColor=none;fillColor=#E7157B;strokeColor=none;dashed=0;verticalLabelPosition=bottom;verticalAlign=top;align=center;html=1;fontSize=12;fontStyle=0;aspect=fixed;pointerEvents=1;shape=mxgraph.aws4.http_notification;" vertex="1" parent="eTdUxkfidYCad7VHPtUT-1">
          <mxGeometry x="1068" y="207" width="78" height="78" as="geometry" />
        </mxCell>
        <mxCell id="eTdUxkfidYCad7VHPtUT-11" value="" style="sketch=0;outlineConnect=0;fontColor=#232F3E;gradientColor=none;fillColor=#E7157B;strokeColor=none;dashed=0;verticalLabelPosition=bottom;verticalAlign=top;align=center;html=1;fontSize=12;fontStyle=0;aspect=fixed;pointerEvents=1;shape=mxgraph.aws4.email_notification;" vertex="1" parent="eTdUxkfidYCad7VHPtUT-1">
          <mxGeometry x="912" y="207" width="78" height="78" as="geometry" />
        </mxCell>
        <mxCell id="eTdUxkfidYCad7VHPtUT-40" style="edgeStyle=orthogonalEdgeStyle;rounded=0;orthogonalLoop=1;jettySize=auto;html=1;" edge="1" parent="eTdUxkfidYCad7VHPtUT-1" source="eTdUxkfidYCad7VHPtUT-13" target="eTdUxkfidYCad7VHPtUT-9">
          <mxGeometry relative="1" as="geometry" />
        </mxCell>
        <mxCell id="eTdUxkfidYCad7VHPtUT-45" value="5. Publish&lt;div&gt;if DRIFTED&lt;/div&gt;" style="edgeLabel;html=1;align=center;verticalAlign=middle;resizable=0;points=[];" vertex="1" connectable="0" parent="eTdUxkfidYCad7VHPtUT-40">
          <mxGeometry x="0.0853" y="-2" relative="1" as="geometry">
            <mxPoint x="-6" as="offset" />
          </mxGeometry>
        </mxCell>
        <mxCell id="eTdUxkfidYCad7VHPtUT-13" value="Evaluation&lt;div&gt;function&lt;/div&gt;" style="sketch=0;outlineConnect=0;fontColor=#232F3E;gradientColor=none;fillColor=#ED7100;strokeColor=none;dashed=0;verticalLabelPosition=bottom;verticalAlign=top;align=center;html=1;fontSize=12;fontStyle=0;aspect=fixed;pointerEvents=1;shape=mxgraph.aws4.lambda_function;" vertex="1" parent="eTdUxkfidYCad7VHPtUT-1">
          <mxGeometry x="830" y="74.5" width="50" height="50" as="geometry" />
        </mxCell>
        <mxCell id="eTdUxkfidYCad7VHPtUT-29" value="StackSet A" style="sketch=0;outlineConnect=0;fontColor=#232F3E;gradientColor=none;fillColor=#E7157B;strokeColor=none;dashed=0;verticalLabelPosition=bottom;verticalAlign=top;align=center;html=1;fontSize=12;fontStyle=0;aspect=fixed;pointerEvents=1;shape=mxgraph.aws4.stack;" vertex="1" parent="eTdUxkfidYCad7VHPtUT-1">
          <mxGeometry x="254.5" y="208" width="78" height="76" as="geometry" />
        </mxCell>
      </root>
    </mxGraphModel>
  </diagram>
</mxfile>
